<?xml version="1.0" encoding="UTF-8" standalone="no"?>
<!-- Created with Inkscape (http://www.inkscape.org/) -->

<svg
   version="1.1"
   id="svg1"
   width="4000"
   height="4000"
   viewBox="0 0 4000 4000"
   sodipodi:docname="logo.svg"
   inkscape:version="1.4.4 (dcaf3e7, 2026-05-05)"
   xmlns:inkscape="http://www.inkscape.org/namespaces/inkscape"
   xmlns:sodipodi="http://sodipodi.sourceforge.net/DTD/sodipodi-0.dtd"
   xmlns="http://www.w3.org/2000/svg"
   xmlns:svg="http://www.w3.org/2000/svg">
  <defs
     id="defs1" />
  <sodipodi:namedview
     id="namedview1"
     pagecolor="#505050"
     bordercolor="#eeeeee"
     borderopacity="1"
     inkscape:showpageshadow="0"
     inkscape:pageopacity="0"
     inkscape:pagecheckerboard="0"
     inkscape:deskcolor="#505050"
     showgrid="false"
     inkscape:zoom="0.08838835"
     inkscape:cx="1097.4297"
     inkscape:cy="2042.1243"
     inkscape:window-width="1920"
     inkscape:window-height="1111"
     inkscape:window-x="-9"
     inkscape:window-y="-9"
     inkscape:window-maximized="1"
     inkscape:current-layer="g1">
    <inkscape:grid
       id="grid1"
       units="px"
       originx="0"
       originy="0"
       spacingx="1"
       spacingy="1"
       empcolor="#0099e5"
       empopacity="0.30196078"
       color="#0099e5"
       opacity="0.14901961"
       empspacing="5"
       enabled="true"
       visible="false" />
  </sodipodi:namedview>
  <g
     inkscape:groupmode="layer"
     inkscape:label="Image"
     id="g1">
    <path
       style="fill:#df7126;fill-opacity:1;stroke:none;stroke-width:135.024;stroke-linecap:round;stroke-linejoin:round;stroke-dasharray:none;stroke-opacity:1"
       d="M 1631.2822,3858.6702 3755.306,2290.3201 3921.4888,88.398183 Z"
       id="path7" />
    <path
       style="fill:#ca6724;fill-opacity:1;stroke:none;stroke-width:135.024;stroke-linecap:round;stroke-linejoin:round;stroke-dasharray:none;stroke-opacity:1"
       d="M 3876.0165,690.90638 3755.306,2290.3201 2091.7003,3518.7038 c 0,0 1671.3321,-1259.3517 1784.3162,-2827.79742 z"
       id="path8" />
    <path
       style="fill:#b45c21;fill-opacity:1;stroke:none;stroke-width:135.024;stroke-linecap:round;stroke-linejoin:round;stroke-dasharray:none;stroke-opacity:1"
       d="m 3805.8741,1620.2928 -50.5681,670.0273 -688.4291,508.3266 c 0,0 706.4739,-747.4202 738.9972,-1178.3539 z"
       id="path9" />
    <path
       style="fill:#ca6724;fill-opacity:1;stroke:none;stroke-width:135.024;stroke-linecap:round;stroke-linejoin:round;stroke-dasharray:none;stroke-opacity:1"
       d="M 78.511758,78.011758 201.53824,2409.5247 1631.2822,3858.6702 Z"
       id="path12" />
    <path
       style="fill:#b45c21;fill-opacity:1;stroke:none;stroke-width:135.024;stroke-linecap:round;stroke-linejoin:round;stroke-dasharray:none;stroke-opacity:1"
       d="M 1222.2956,3436.7183 201.53824,2409.5247 114.86424,690.90638 c 0,0 116.80495,1737.02712 1107.43136,2745.81192 z"
       id="path13" />
    <path
       style="fill:#a1541f;fill-opacity:1;stroke:none;stroke-width:135.024;stroke-linecap:round;stroke-linejoin:round;stroke-dasharray:none;stroke-opacity:1"
       d="m 711.9169,2923.1215 -510.37866,-513.5968 -50.96946,-965.938 c 0,0 -62.004085,965.938 561.34812,1479.5348 z"
       id="path14" />
    <path
       style="fill:#ca6724;fill-opacity:1;stroke:none;stroke-width:135.024;stroke-linecap:round;stroke-linejoin:round;stroke-dasharray:none;stroke-opacity:1"
       d="M 78.511758,78.011758 1864.8311,1178.2275 1578.5965,1329.9111 Z"
       id="path15" />
    <path
       style="fill:#b45c21;fill-opacity:1;stroke:none;stroke-width:135.024;stroke-linecap:round;stroke-linejoin:round;stroke-dasharray:none;stroke-opacity:1"
       d="M 78.511758,78.011758 1578.5965,1329.9111 1864.8311,1178.2275 c 0,0 -560.7213,-103.119 -1786.319342,-1100.215742 z"
       id="path16" />
    <path
       style="fill:#a1541f;fill-opacity:1;stroke:none;stroke-width:135.024;stroke-linecap:round;stroke-linejoin:round;stroke-dasharray:none;stroke-opacity:1"
       d="M 78.511758,78.011758 1578.5965,1329.9111 l 286.2658,-151.694 c 0,0 -233.5801,343.5076 -1786.350542,-1100.205342 z"
       id="path17" />
    <path
       style="fill:#ececec;fill-opacity:1;stroke:none;stroke-width:135.024;stroke-linecap:round;stroke-linejoin:round;stroke-dasharray:none;stroke-opacity:1"
       d="M 1631.2822,3858.6702 1578.5965,1329.9111 3921.4888,88.398183 Z"
       id="path18" />
    <path
       style="fill:#e1e1e1;fill-opacity:1;stroke:none;stroke-width:135.024;stroke-linecap:round;stroke-linejoin:round;stroke-dasharray:none;stroke-opacity:1"
       d="M 1631.2822,3858.6702 78.511758,78.011758 1578.5965,1329.9111 Z"
       id="path19" />
    <path
       style="fill:#d2d2d2;fill-opacity:1;stroke:none;stroke-width:135.024;stroke-linecap:round;stroke-linejoin:round;stroke-dasharray:none;stroke-opacity:1"
       d="M 78.511758,78.011758 3921.4888,88.398183 1864.8311,1178.2275 Z"
       id="path20" />
    <path
       style="fill:#f4f4f4;fill-opacity:1;stroke:none;stroke-width:135.024;stroke-linecap:round;stroke-linejoin:round;stroke-dasharray:none;stroke-opacity:1"
       d="M 1614.2663,3041.9593 1578.5965,1329.9111 3502.8199,310.25213 c 0,0 -1817.2847,1172.36697 -1888.5536,2731.70717 z"
       id="path21" />
    <path
       style="fill:#ffffff;fill-opacity:1;stroke:none;stroke-width:135.024;stroke-linecap:round;stroke-linejoin:round;stroke-dasharray:none;stroke-opacity:1"
       d="m 2750.0426,709.15462 -1171.4461,620.75648 20.1208,965.7398 c 0,0 47.391,-778.7842 1151.3253,-1586.49628 z"
       id="path22" />
    <path
       style="fill:#ececec;fill-opacity:1;stroke:none;stroke-width:135.024;stroke-linecap:round;stroke-linejoin:round;stroke-dasharray:none;stroke-opacity:1"
       d="M 1613.5948,3009.7286 1578.5965,1329.9111 430.38928,364.13414 c 0,0 1240.23672,1556.60666 1183.20552,2645.59446 z"
       id="path23" />
    <path
       style="fill:#f4f4f4;fill-opacity:1;stroke:none;stroke-width:135.024;stroke-linecap:round;stroke-linejoin:round;stroke-dasharray:none;stroke-opacity:1"
       d="M 1599.5239,2334.3667 1578.5965,1329.9111 929.91802,788.55487 c 0,0 420.35708,388.95413 669.60588,1545.81183 z"
       id="path24" />
    <path
       style="fill:#ffffff;fill-opacity:1;stroke:none;stroke-width:135.024;stroke-linecap:round;stroke-linejoin:round;stroke-dasharray:none;stroke-opacity:1"
       d="m 1578.5965,1760.6125 v -430.7014 l -336.8409,-283.3228 c 0,0 247.8028,246.6351 336.8409,714.0242 z"
       id="path25" />
    <path
       style="fill:#e1e1e1;fill-opacity:1;stroke:none;stroke-width:135.024;stroke-linecap:round;stroke-linejoin:round;stroke-dasharray:none;stroke-opacity:1"
       d="M 2554.0677,813.00292 3921.4888,88.398183 78.511758,78.011758 c 0,0 2045.765342,1047.990242 2475.555942,734.991162 z"
       id="path26" />
    <path
       style="fill:#ececec;fill-opacity:1;stroke:none;stroke-width:135.024;stroke-linecap:round;stroke-linejoin:round;stroke-dasharray:none;stroke-opacity:1"
       d="M 2946.138,605.23963 3921.4888,88.398183 528.36008,78.011758 c 0,0 572.18322,390.101342 2417.77792,527.227872 z"
       id="path27" />
    <g
       id="g12"
       transform="matrix(10.386424,0,0,10.386424,-103.25067,-98.557456)">
      <path
         style="fill:none;stroke:#000000;stroke-width:13;stroke-linecap:round;stroke-linejoin:round;stroke-dasharray:none;stroke-opacity:1"
         d="M 17.5,17 161.92745,137.53227 387.5,18 167,380 29.344931,241.47696 Z"
         id="path4" />
      <g
         id="g11"
         style="stroke:#000000;stroke-opacity:1">
        <g
           id="g10"
           style="stroke:#000000;stroke-opacity:1">
          <path
             style="fill:none;stroke:#000000;stroke-width:13;stroke-linecap:round;stroke-linejoin:round;stroke-dasharray:none;stroke-opacity:1"
             d="m 17.5,17 370,1 -16,212 L 167,381 v -1"
             id="path3" />
          <path
             style="fill:none;stroke:#000000;stroke-width:13;stroke-linecap:round;stroke-linejoin:round;stroke-dasharray:none;stroke-opacity:1"
             d="M 161.92745,137.53227 167,381 17.5,17 v 0"
             id="path5" />
        </g>
        <path
           style="fill:none;stroke:#000000;stroke-width:13;stroke-linecap:round;stroke-linejoin:round;stroke-dasharray:none;stroke-opacity:1"
           d="m 17.5,17 171.98898,105.92725 -0.003,0.001"
           id="path6" />
      </g>
    </g>
  </g>
</svg>
